<svg id="Layer_1" data-name="Layer 1" xmlns="http://www.w3.org/2000/svg" viewBox="0 0 150 40"><defs><style>.cls-1{fill:#273747;}.cls-2{fill:#4d8400;}</style></defs><title>bonzai logo 150</title><path class="cls-1" d="M15.42,16c-2.38,0-4.5,1.39-5.81,4.29l1-11.37H4.27L4,12H6.37L4.76,31a15.26,15.26,0,0,0,3.85,1.1,12.23,12.23,0,0,0,1.68.13c6.21,0,9.38-4.89,9.38-10.73C19.67,18.05,18,16,15.42,16ZM10.83,29a5.76,5.76,0,0,1-1.93-.33l-.07,0c0-.36.1-.72.16-1.07.87-4.69,3.34-8,5.38-8,.87,0,1.17,1,1.17,2.43C15.54,25.51,13.59,29,10.83,29Z"/><path class="cls-1" d="M30,16c3.47,0,6.59,2.12,6.59,7.28,0,6.08-3.51,9-8,9C25.07,32.26,22,30.13,22,25,22,18.89,25.46,16,30,16Zm-3.93,8.77c0,2.73,1,4.08,2.76,4.08,2.33,0,3.62-1.86,3.62-5.36,0-3.12-1.14-4.08-2.75-4.08C27.41,19.4,26.09,21.29,26.09,24.76Z"/><path class="cls-1" d="M52.9,28.9l.66-5.3a25.78,25.78,0,0,0,.21-3.33c0-3.39-1.65-4.28-3.66-4.28-2.71,0-4.82,1.55-6.21,4.9l.39-4.6H38.36l-.26,3.05h2l-1,12.21L39,32H43l.06-.47a23.52,23.52,0,0,1,2.22-8.31c1.14-2.25,2.46-3.6,3.68-3.6.54,0,.9.39.9,1.62a23.92,23.92,0,0,1-.3,3.36L48.43,32h6l.27-3.06Z"/><path class="cls-1" d="M71.48,16.29H59l-.48,4.85h3.41l.24-1.8h4.19l-8.56,9.74L57.52,32H70.64l.48-5H67.89l-.24,2H62.59l8.66-9.77Z"/><path class="cls-1" d="M87.78,28.9l1-12.26H87.16a16.16,16.16,0,0,0-2.25-.51,14.16,14.16,0,0,0-2-.14c-5,0-9,3.65-9,10.42,0,4,1.88,5.85,4.49,5.85,2.2,0,4.23-1.44,5.57-4.71L83.58,32h5.5l.27-3.06Zm-8.5-.24c-.81,0-1.26-1-1.26-2.7C78,22.28,79.7,19,82.76,19a6.68,6.68,0,0,1,1.52.24C84,23.54,81.35,28.66,79.28,28.66Z"/><path class="cls-1" d="M96.75,8.46a2.31,2.31,0,0,1,2.55,2.31,2.5,2.5,0,0,1-2.76,2.55A2.32,2.32,0,0,1,94,11,2.54,2.54,0,0,1,96.75,8.46Z"/><polygon class="cls-1" points="97.26 28.9 98.31 16.29 98.3 16.29 92.5 16.29 92.23 19.34 94.1 19.34 94.11 19.34 93.06 31.96 98.88 31.96 99.15 28.9 97.26 28.9"/><path class="cls-2" d="M146.37,25.22H108.71c-.83,0-.83,3,0,3h37.66c.84,0,.84-3,0-3"/><path class="cls-2" d="M139.88,32.25H119.54c-.84,0-.84,3,0,3h20.34C140.72,35.28,140.72,32.25,139.88,32.25Z"/><path class="cls-2" d="M139.88,18.18H115.21c-.84,0-.84,3,0,3h24.67C140.72,21.21,140.72,18.18,139.88,18.18Z"/><path class="cls-2" d="M126.89,4.12h-3.83c-.84,0-.84,3,0,3h3.83C127.73,7.15,127.73,4.12,126.89,4.12Z"/><path class="cls-2" d="M126.89,11.15H115.21c-.84,0-.84,3,0,3h11.68c.84,0,.84-3,0-3"/></svg>